<svg width="5" height="6" viewBox="0 0 5 6" fill="none" xmlns="http://www.w3.org/2000/svg">
<path d="M2.49219 5.19531C2.20312 5.19531 2.00781 4.9536 2.00781 4.64283C2.00781 4.47017 2.07812 4.20774 2.21875 3.85553C2.35937 3.49642 2.42969 3.15111 2.42969 2.792C2.08594 2.97846 1.82812 3.17183 1.63281 3.3652C1.24219 3.75194 0.859375 4.13178 0.453125 4.13178C0.203125 4.13178 0 3.95912 0 3.75194C0 3.52404 0.210937 3.29614 0.671875 3.18564C0.898437 3.1304 1.15625 3.06824 1.44531 3.0199C1.72656 2.97156 2.03906 2.86106 2.36719 2.69531C2.03125 2.52957 1.71094 2.41907 1.41406 2.36382C0.828125 2.25332 0.359375 2.16354 0.15625 1.95636C0.0546875 1.85277 0 1.74227 0 1.62487C0 1.41769 0.1875 1.25885 0.460937 1.25885C0.875 1.25885 1.35937 1.74227 1.70312 2.08758C1.875 2.26023 2.11719 2.43288 2.42969 2.59863V2.50885C2.42969 2.23261 2.40625 2.0047 2.34375 1.83896C2.21875 1.50747 2.02344 0.989511 2.02344 0.747798C2.02344 0.430119 2.22656 0.195312 2.50781 0.195312C2.78125 0.195312 2.99219 0.416307 2.99219 0.747798C2.99219 0.913545 2.92187 1.18288 2.78125 1.5489C2.64062 1.91493 2.57031 2.26714 2.57031 2.59863C3.01562 2.35001 2.96094 2.37763 3.34375 2.05305C3.71094 1.69393 3.96875 1.47294 4.10937 1.39006C4.25781 1.30028 4.40625 1.25885 4.5625 1.25885C4.8125 1.25885 5 1.41078 5 1.62487C5 1.85968 4.80469 2.05995 4.35156 2.19117C4.13281 2.25332 3.875 2.30857 3.58594 2.36382C3.28906 2.41907 2.97656 2.52957 2.63281 2.69531C2.96875 2.86106 3.27344 2.96465 3.5625 3.0199C4.13281 3.1304 4.61719 3.22708 4.83594 3.42736C4.94531 3.53095 5 3.63454 5 3.75194C5 3.95912 4.8125 4.13178 4.53906 4.13178C4.07812 4.13178 3.48437 3.48261 3.25781 3.2547C3.14844 3.14421 2.91406 2.98537 2.57031 2.792V2.88178C2.57031 3.17874 2.64062 3.51023 2.77344 3.86935C2.90625 4.22846 2.97656 4.48399 2.97656 4.64283C2.97656 4.96741 2.76562 5.19531 2.49219 5.19531Z" fill="#AF0101"/>
</svg>
