<svg width="21" height="24" viewBox="0 0 21 24" fill="none" xmlns="http://www.w3.org/2000/svg">
<path d="M10.8064 23.0151C8.44464 23.0151 6.46294 22.6215 4.86129 21.8342C3.25964 21.0198 2.05162 19.7846 1.23722 18.1287C0.422824 16.4728 0.015625 14.3689 0.015625 11.8171C0.015625 9.23819 0.422824 7.13433 1.23722 5.50553C2.05162 3.84959 3.24607 2.62799 4.82057 1.84074C6.42222 1.02634 8.37678 0.619141 10.6842 0.619141C12.856 0.619141 14.6884 1.01277 16.1814 1.80002C17.6745 2.56012 18.8011 3.75457 19.5612 5.38337C20.3213 6.98502 20.7013 9.06173 20.7013 11.6135V13.0794H5.75713C5.81142 14.3282 6.00145 15.3869 6.32721 16.2556C6.68012 17.1243 7.20947 17.7758 7.91528 18.2101C8.64824 18.6173 9.61195 18.8209 10.8064 18.8209C11.4579 18.8209 12.0416 18.7395 12.5574 18.5766C13.1003 18.4137 13.5618 18.1694 13.9418 17.8437C14.3219 17.5179 14.6205 17.1107 14.8377 16.6221C15.0548 16.1334 15.1634 15.5769 15.1634 14.9525H20.7013C20.7013 16.3099 20.457 17.4908 19.9684 18.4952C19.4797 19.4996 18.8011 20.3411 17.9324 21.0198C17.0637 21.6713 16.0185 22.1735 14.7969 22.5264C13.6025 22.8522 12.2723 23.0151 10.8064 23.0151ZM5.83857 9.49608H14.8784C14.8784 8.68168 14.7698 7.97587 14.5526 7.37865C14.3626 6.78142 14.0911 6.29278 13.7382 5.91273C13.3853 5.53268 12.951 5.26121 12.4352 5.09833C11.9466 4.9083 11.39 4.81329 10.7657 4.81329C9.73411 4.81329 8.86542 4.98974 8.1596 5.34265C7.48094 5.66841 6.95158 6.1842 6.57153 6.89001C6.21862 7.56867 5.9743 8.43736 5.83857 9.49608Z" fill="#D00F09"/>
</svg>
