<svg width="264" height="52" xmlns="http://www.w3.org/2000/svg">
    <g fill="none" fill-rule="evenodd">
        <path
            d="M86.37 15.716c5.34 0 7.88 3.546 7.88 9.149v3.758c0 5.555-2.51 9.146-7.88 9.146-5.053 0-7.91-3.249-7.91-9.146v-3.758c0-6.171 3.102-9.149 7.91-9.149zm74.71.382c2.116-.546 5.322-.35 8.362.252.229.045.28.154.28.329v1.57c0 .199-.085.324-.288.29-2.004-.352-4.847-.66-6.351-.421-2.195.355-3.137 1.114-3.137 2.479 0 1.68 1.82 2.786 3.167 3.594.487.292 1.42.883 2.67 1.603 2.14 1.229 4.804 3.157 4.804 6.148 0 4.392-3.781 5.827-7.436 5.827-1.588 0-3.213-.163-4.994-.433-.303-.047-.396-.106-.396-.391v-1.541c0-.211.076-.3.328-.268 3.193.405 5.776.572 7.516.008 1.327-.43 2.477-1.421 2.352-3.202-.12-1.69-1.547-2.692-3.874-4.108-.395-.242-1.974-1.177-2.826-1.72-1.828-1.165-4.02-2.651-4.02-5.517 0-2.043 1.427-3.874 3.844-4.5zm26.886-.331c4.863 0 7.54 3.276 7.54 9.223v3.538c0 5.947-2.677 9.224-7.54 9.224-4.862 0-7.54-3.277-7.54-9.224V24.99c0-5.947 2.678-9.223 7.54-9.223zm54.491 0c1.877 0 3.793.117 5.258.32.307.043.457.207.457.5v.682c0 .392-.309.422-.404.422a.954.954 0 01-.088-.005c-1.758-.204-3.125-.278-5.223-.278-3.545 0-5.5 2.65-5.5 7.462v3.774c0 4.812 1.955 7.462 5.5 7.462 2.098 0 3.465-.073 5.223-.276a.736.736 0 01.088-.008c.095 0 .404.03.404.424v.679c0 .295-.15.458-.457.5-1.465.205-3.38.322-5.258.322-4.525 0-7.224-3.405-7.226-9.105v-3.766c0-5.704 2.701-9.11 7.226-9.11zm-32.16.142c.346 0 .557.29.557.558v.584a.557.557 0 01-.557.558h-7.967c-.957 0-1.574.619-1.574 1.575v6.198h8.867a.56.56 0 01.56.557v.585a.56.56 0 01-.56.557h-8.867v9.942a.56.56 0 01-.559.557h-.613a.565.565 0 01-.557-.557v-17.84c0-2.08 1.204-3.274 3.303-3.274zm14.778 0c.348 0 .559.29.559.558v.584a.558.558 0 01-.56.558h-7.968c-.955 0-1.57.619-1.57 1.575v6.198h8.867a.56.56 0 01.559.557v.585a.56.56 0 01-.56.557h-8.866v9.942a.56.56 0 01-.561.557h-.61a.565.565 0 01-.558-.557v-17.84c0-2.08 1.202-3.274 3.299-3.274zm37.789 0a.56.56 0 01.558.557v.584a.56.56 0 01-.558.558h-7.969c-.955 0-1.572.62-1.572 1.575v6.198h8.867c.344 0 .557.29.557.557v.586a.558.558 0 01-.557.556h-8.867v7.224c0 .957.617 1.576 1.572 1.576h7.969a.56.56 0 01.558.56v.583a.559.559 0 01-.558.556h-7.969c-2.098 0-3.301-1.193-3.301-3.275v-15.12c0-2.08 1.203-3.276 3.301-3.276zm-32.41 0c.303 0 .557.255.557.558v20.556a.557.557 0 01-.557.557h-.613a.563.563 0 01-.555-.557V16.467c0-.267.21-.558.555-.558zm-130.476.011c.139 0 .282.112.282.282v16.01c0 1.673.988 2.875 2.472 2.875h7.088c.182 0 .28.154.28.295v1.9c0 .121-.096.285-.28.285h-2.545l-.238-.001h-1.984l-.245-.001h-2.265c-3.223 0-4.933-1.814-4.933-5.457V16.204c0-.179.146-.284.283-.284zm-32.564.001c6.05 0 8.873 1.49 8.873 6.331 0 4.842-2.823 6.332-8.873 6.332H65.05v8.7a.282.282 0 01-.285.28h-2.084a.28.28 0 01-.281-.28v-21.08c0-.156.129-.283.281-.283zm85.518 0c.176 0 .285.146.285.283v21.079a.282.282 0 01-.285.28h-2.083a.282.282 0 01-.284-.28v-21.08c0-.155.13-.282.284-.282zm-15.898 0c6.048 0 8.872 1.42 8.872 6.262 0 3.355-1.36 5.067-4.206 5.802l2.204 3.936.439.782 2.45 4.374c.125.22.051.486-.232.486h-2.123c-.22 0-.429-.099-.522-.27-.097-.178-4.328-7.703-5.002-8.903-.587.037-1.214.055-1.88.055h-2.17v8.837a.28.28 0 01-.284.282h-2.084a.281.281 0 01-.284-.282V16.205c0-.157.13-.284.284-.284zm-16.433-.092c1.44.004 2.53.537 2.93 2.072 0 0 5.403 19.036 5.446 19.196.076.278.015.467-.323.467h-1.999c-.209 0-.299-.06-.36-.28-.015-.048-.823-2.994-1.798-6.537h-7.792c-.973 3.543-1.784 6.489-1.8 6.538-.06.219-.152.279-.36.279h-1.999c-.338 0-.397-.19-.322-.467.043-.16 5.445-19.196 5.445-19.196.402-1.535 1.494-2.068 2.932-2.072zm67.365 1.58c-3.858 0-5.813 2.55-5.813 7.576v3.55c0 5.025 1.955 7.574 5.813 7.574 3.859 0 5.814-2.55 5.814-7.574v-3.55c0-5.026-1.955-7.576-5.814-7.576zm-101.596.696c-3.437 0-5.2 2.189-5.2 6.76v3.758c0 4.518 1.697 6.759 5.2 6.759 3.852 0 5.17-2.759 5.17-6.759v-3.758c0-4.459-1.652-6.76-5.17-6.76zm34.231-.051c-.266.004-.446.143-.543.489l-2.32 8.446-.16.582-.16.583-.08.292h6.526l-.24-.875-.16-.582-2.32-8.446c-.096-.346-.28-.485-.543-.49zm-53.246.082H65.05v8.233h2.305c4.531 0 6.281-.86 6.281-4.117 0-3.254-1.75-4.116-6.281-4.116zm69.62-.002h-2.11v8.096h2.11c4.531 0 6.28-.791 6.28-4.047s-1.749-4.049-6.28-4.049z"
            fill="#0046B8" />
        <path
            d="M13.714 42.939a.688.688 0 01-.548-.708l1.295-30.742-7.635-2.964c-.37-.144-.61.057-.53.448l6.695 33.272a.925.925 0 00.723.694"
            fill="#FFA52E" />
        <path
            d="M15.451 3.626c-.354-.18-.659-.002-.676.395L13.166 42.23a.688.688 0 00.548.709c-.309-.066-.48-.348-.388-.683l9.598-34.857-7.473-3.773z"
            fill="#87CC25" />
        <path
            d="M12.992 42.245l-4.95-24.587L.45 15.511c-.384-.108-.556.095-.382.453l12.75 26.34c.175.356.642.65 1.04.65a.924.924 0 01-.866-.709"
            fill="#F46060" />
        <path d="M13.166 42.23l.962-22.851-6.086-1.722 4.95 24.588a.923.923 0 00.722.694.688.688 0 01-.548-.709"
            fill="#F98526" />
        <path
            d="M21.09 14.062l-6.63-2.573-1.294 30.741a.688.688 0 00.549.709c-.31-.066-.481-.348-.388-.683l7.763-28.194z"
            fill="#74B502" />
        <path
            d="M49.503 14.98L25.389 1.086c-.344-.198-.713-.047-.82.338l-11.242 40.83c-.093.337.078.618.387.683.046.01.094.014.144.015l25.29-.03c.093 0 .052 0 0 0 .397 0 .837-.306.976-.678l9.754-26.226a.89.89 0 00-.375-1.04"
            fill="#1C7EF9" />
        <path
            d="M22.808 25.006c-.09-.024-.187.042-.215.147l-.367 1.326c-.028.104.021.206.11.23L41.12 31.43c.053.015.122-.038.152-.117l.382-1.006c.03-.08.01-.157-.044-.172l-18.8-5.13zm1.406-5.082c-.089-.03-.187.035-.218.146l-.385 1.394c-.03.11.02.22.11.248l18.834 5.93c.054.016.123-.035.154-.118l.397-1.045c.032-.083.014-.166-.04-.184l-18.852-6.37zm1.481-5.34c-.092-.038-.19.026-.224.142l-.404 1.466c-.03.115.016.236.107.271l18.874 7.24c.054.02.125-.03.157-.117l.413-1.087c.033-.086.015-.174-.039-.196l-18.884-7.72zm20.46 3.565L27.252 8.96c-.09-.044-.193.02-.227.142l-.426 1.544c-.034.12.014.252.105.294l18.898 8.667c.054.025.124-.027.158-.116l.43-1.13c.034-.09.018-.185-.035-.21z"
            fill="#FFF" />
    </g>
</svg>