<svg width="22" height="24" viewBox="0 0 22 24" fill="none" xmlns="http://www.w3.org/2000/svg">
<path d="M11.1189 23.0151C8.75714 23.0151 6.77544 22.6215 5.17379 21.8342C3.57214 21.0198 2.36412 19.7846 1.54972 18.1287C0.735324 16.4728 0.328125 14.3689 0.328125 11.8171C0.328125 9.23819 0.735324 7.13433 1.54972 5.50553C2.36412 3.84959 3.55857 2.62799 5.13307 1.84074C6.73472 1.02634 8.68928 0.619141 10.9967 0.619141C13.1685 0.619141 15.0009 1.01277 16.4939 1.80002C17.987 2.56012 19.1136 3.75457 19.8737 5.38337C20.6338 6.98502 21.0138 9.06173 21.0138 11.6135V13.0794H6.06963C6.12392 14.3282 6.31395 15.3869 6.63971 16.2556C6.99262 17.1243 7.52197 17.7758 8.22778 18.2101C8.96074 18.6173 9.92445 18.8209 11.1189 18.8209C11.7704 18.8209 12.3541 18.7395 12.8699 18.5766C13.4128 18.4137 13.8743 18.1694 14.2543 17.8437C14.6344 17.5179 14.933 17.1107 15.1502 16.6221C15.3673 16.1334 15.4759 15.5769 15.4759 14.9525H21.0138C21.0138 16.3099 20.7695 17.4908 20.2809 18.4952C19.7922 19.4996 19.1136 20.3411 18.2449 21.0198C17.3762 21.6713 16.331 22.1735 15.1094 22.5264C13.915 22.8522 12.5848 23.0151 11.1189 23.0151ZM6.15107 9.49608H15.1909C15.1909 8.68168 15.0823 7.97587 14.8651 7.37865C14.6751 6.78142 14.4036 6.29278 14.0507 5.91273C13.6978 5.53268 13.2635 5.26121 12.7477 5.09833C12.2591 4.9083 11.7025 4.81329 11.0782 4.81329C10.0466 4.81329 9.17792 4.98974 8.4721 5.34265C7.79344 5.66841 7.26408 6.1842 6.88403 6.89001C6.53112 7.56867 6.2868 8.43736 6.15107 9.49608Z" fill="#0B2649"/>
</svg>
